<svg xmlns="http://www.w3.org/2000/svg" width="524" height="160" viewBox="0 0 524 166" fill="none">
  <path d="M241.577 163.085C249.968 163.292 258.363 163.29 266.754 163.085C273.536 163.262 280.318 163.343 287.1 163.043C287.415 163.043 287.731 163.043 288.044 163.043C289.409 163.099 290.771 163.197 292.136 163.204C303.59 163.243 315.052 163.073 326.498 163.334C352.786 163.931 379.075 163.692 405.358 163.508C424.467 163.376 443.582 163.094 462.685 163.387C477.927 163.62 493.162 163.457 508.401 163.613C511.367 163.643 514.327 163.013 517.304 163.617C518.721 163.906 519.056 163.248 519.076 162.181C519.184 156.198 519.039 150.197 519.594 144.242C520.563 133.8 520.048 123.341 520.552 112.904C521.254 98.3552 520.677 83.8067 520.899 69.2606C521.015 61.7968 521.032 54.3308 521.092 46.8671C521.092 46.7229 521.126 46.5787 521.189 46.4439C521.268 46.2765 521.297 46.0951 521.277 45.9161C520.688 40.4892 520.89 35.0437 520.941 29.6121C521.012 21.974 519.881 14.3801 519.935 6.74427C519.957 3.60532 519.719 3.6681 515.792 3.56347C500.07 3.14494 484.336 2.9845 468.622 3.3263C450.634 3.71693 432.648 3.74483 414.674 3.47744C391.203 3.13099 367.738 3.37513 344.27 3.27515C338.768 3.2519 333.262 3.52394 327.757 3.6588C325.008 3.52859 322.261 3.47744 319.519 3.75646C309.027 3.603 298.534 3.50766 288.044 3.80993C287.728 3.80993 287.415 3.80993 287.1 3.80993C286.463 3.75413 285.829 3.65182 285.192 3.6495C270.001 3.6402 254.811 3.6402 239.621 3.6495C239.339 3.6495 239.055 3.65647 238.773 3.69135C238.25 3.75878 237.721 3.73785 237.198 3.6774C237.022 3.65647 236.84 3.65647 236.663 3.69135C236.197 3.7797 235.711 3.7797 235.233 3.73553C234.664 3.68437 234.096 3.6495 233.527 3.6495C206.311 3.6402 179.095 3.64252 151.879 3.64252C129.239 3.64252 106.595 3.64252 83.9547 3.6495C83.7812 3.6495 83.6078 3.65182 83.4343 3.65647C81.7282 3.65647 80.0249 3.65415 78.3159 3.65182C76.8884 3.59602 75.4581 3.58904 74.0306 3.63787L69.0657 3.64717C66.5378 3.53092 64.0013 3.66345 61.4734 3.65182C53.244 3.61462 45.0062 3.44023 36.7883 3.70995C31.2177 3.89131 25.6813 3.64485 20.1363 3.51696C15.9989 3.42163 11.8814 2.80082 7.74965 2.47064C6.48426 2.37066 5.19612 2.45437 3.66628 2.45437C3.65775 2.45437 3.64922 2.46135 3.65206 2.46832C4.48807 5.78399 4.59044 9.12058 4.19234 12.3944C3.61794 17.1168 4.34874 21.8857 3.33642 26.5615C2.81321 28.9843 2.81605 31.3978 2.81605 33.8183C2.82458 56.1491 2.62553 78.4821 3.03216 100.808C3.19424 109.755 3.18856 118.707 3.47007 127.654C3.47576 128.108 3.24543 128.619 3.37055 129.043C3.70324 130.177 3.72315 131.356 3.70893 132.523C3.69471 133.69 3.87386 134.827 3.98476 135.96C4.10135 137.125 4.33452 138.297 4.30893 139.473C4.2094 144.407 5.08238 149.32 4.76959 154.259C4.74115 154.719 4.76959 155.182 4.75252 155.642C4.7184 156.458 4.144 157.17 3.26249 157.172C2.24449 157.172 1.95729 156.342 1.9516 155.556C1.91748 151.869 1.97151 148.176 1.83217 144.491C1.37151 132.333 1.12696 120.172 0.768674 108.016C0.32792 93.0678 0.87673 78.1217 0.37626 63.185C0.0833716 54.4656 -0.0104664 45.7487 0.000907933 37.0294C0.00943866 30.0679 1.12128 23.1505 1.34308 16.2007C1.49663 11.4132 1.97151 6.59081 0.760142 1.85448C0.34498 0.231527 1.16677 -0.091669 2.70231 0.0199382C8.36671 0.43149 14.034 0.817464 19.6728 1.39643C21.5325 1.58709 23.3666 1.57081 25.2007 1.57081C124.277 1.58476 223.355 1.77078 322.431 1.45223C357.262 1.34062 392.099 1.50338 426.927 1.08486C433.857 1.00115 440.792 0.736086 447.716 0.908147C471.83 1.51036 495.946 1.01743 520.06 1.21274C521.089 1.22204 522.36 0.847693 522.44 2.40089C522.858 10.6622 523.586 18.9164 523.776 27.18C524.015 37.3874 524.132 47.6065 523.768 57.8092C523.128 75.6501 523.842 93.4956 523.247 111.325C523.026 117.993 523.091 124.66 522.983 131.323C522.952 133.179 522.872 135.041 522.446 136.864C522.392 137.092 522.457 137.343 522.488 137.587C522.093 145.809 521.763 154.029 521.866 162.257C521.894 164.55 520.469 165.685 517.688 165.687C496.387 165.701 475.089 165.624 453.79 165.778C447.426 165.824 441.057 166.094 434.696 165.966C404.289 165.354 373.877 165.692 343.471 165.761C337.869 165.773 332.264 165.699 326.671 165.629C256.819 164.757 186.966 165.524 117.114 165.266C115.339 165.259 113.568 165.268 111.793 165.271C111.79 165.271 111.788 165.271 111.785 165.268C111.648 165.185 111.515 165.101 111.378 165.02C111.378 165.02 111.372 165.02 111.37 165.017C108.307 164.994 105.245 164.947 102.182 164.947C81.7708 164.941 61.3596 164.841 40.9513 165.008C34.9911 165.057 29.0395 165.031 23.0936 164.829C16.687 164.613 10.3714 163.364 3.89661 163.715C3.89092 163.715 3.88523 163.713 3.88239 163.708C2.73643 161.267 4.34021 161.237 5.55157 161.316C10.1809 161.611 14.7847 162.134 19.4396 162.26C22.4851 162.343 25.522 162.859 28.5646 162.864C56.4743 162.911 84.3869 162.887 112.297 162.885C112.302 162.885 112.305 162.885 112.308 162.89C112.848 163.485 113.545 163.257 114.225 163.134H114.227C125.499 163.129 136.768 163.115 148.04 163.122C150.77 163.122 153.503 163.211 156.233 163.213C173.388 163.222 190.543 163.22 207.701 163.211C208.66 163.211 209.618 163.108 210.579 163.055C216.394 163.322 222.209 163.329 228.025 163.055C230.769 163.322 233.513 163.322 236.254 163.055C236.254 163.055 236.259 163.055 236.262 163.055C236.734 163.243 237.209 163.241 237.681 163.055C237.681 163.055 237.687 163.055 237.69 163.055C238.978 163.311 240.275 163.271 241.568 163.094L241.577 163.085Z" fill="#B0D694"/>
</svg>