<svg width="532" height="137" viewBox="0 0 642 157" fill="none" xmlns="http://www.w3.org/2000/svg">
<path d="M254.486 154.243C263.325 154.439 272.168 154.437 281.008 154.243C288.152 154.41 295.297 154.487 302.441 154.203C302.774 154.203 303.106 154.203 303.436 154.203C304.873 154.256 306.308 154.349 307.746 154.355C319.812 154.393 331.887 154.232 343.944 154.478C371.638 155.044 399.331 154.817 427.019 154.643C447.149 154.518 467.285 154.252 487.409 154.529C503.465 154.749 519.515 154.595 535.568 154.742C538.692 154.771 541.81 154.175 544.947 154.747C546.438 155.019 546.792 154.397 546.813 153.388C546.927 147.729 546.774 142.054 547.358 136.422C548.38 126.546 547.837 116.654 548.368 106.782C549.107 93.0227 548.499 79.263 548.733 65.5055C548.856 58.4464 548.874 51.3851 548.937 44.3261C548.937 44.1897 548.973 44.0534 549.039 43.9258C549.122 43.7675 549.152 43.596 549.131 43.4266C548.511 38.294 548.724 33.1437 548.778 28.0066C548.853 20.7826 547.661 13.6004 547.717 6.37862C547.741 3.40985 547.49 3.46923 543.353 3.37027C526.791 2.97443 510.217 2.82269 493.663 3.14596C474.714 3.51541 455.767 3.54179 436.832 3.2889C412.107 2.96124 387.388 3.19214 362.666 3.09758C356.87 3.07559 351.07 3.33288 345.271 3.46043C342.374 3.33728 339.481 3.2889 336.593 3.55279C325.54 3.40765 314.486 3.31749 303.436 3.60337C303.103 3.60337 302.774 3.60337 302.441 3.60337C301.77 3.55059 301.102 3.45383 300.431 3.45163C284.429 3.44284 268.427 3.44284 252.425 3.45163C252.128 3.45163 251.829 3.45823 251.532 3.49122C250.981 3.55499 250.424 3.5352 249.873 3.47802C249.687 3.45823 249.495 3.45823 249.309 3.49122C248.818 3.57478 248.306 3.57478 247.803 3.533C247.204 3.48462 246.604 3.45163 246.005 3.45163C217.335 3.44284 188.665 3.44504 159.995 3.44504C136.145 3.44504 112.291 3.44504 88.4408 3.45163C88.2581 3.45163 88.0754 3.45383 87.8926 3.45823C86.0953 3.45823 84.301 3.45603 82.5007 3.45383C80.9969 3.40105 79.4902 3.39446 77.9864 3.44064L72.7562 3.44944C70.0932 3.33948 67.4212 3.46483 64.7582 3.45383C56.0891 3.41865 47.4111 3.25371 38.754 3.50881C32.8858 3.68034 27.0535 3.44723 21.2123 3.32628C16.8538 3.23612 12.5163 2.64896 8.16376 2.33669C6.83075 2.24213 5.47378 2.3213 3.86219 2.3213C3.8532 2.3213 3.84421 2.3279 3.84721 2.3345C4.72789 5.4704 4.83573 8.62609 4.41636 11.7224C3.81126 16.1887 4.58111 20.6991 3.51471 25.1214C2.96353 27.4129 2.96652 29.6955 2.96652 31.9848C2.97551 53.1048 2.76582 74.2271 3.19418 95.3427C3.36493 103.805 3.35894 112.271 3.6555 120.733C3.66149 121.162 3.41885 121.646 3.55065 122.046C3.90113 123.119 3.9221 124.234 3.90712 125.338C3.89214 126.442 4.08086 127.518 4.19768 128.589C4.3205 129.69 4.56613 130.799 4.53917 131.911C4.43433 136.578 5.35396 141.224 5.02445 145.895C4.99449 146.331 5.02445 146.768 5.00648 147.204C4.97053 147.976 4.36543 148.649 3.43682 148.651C2.36442 148.651 2.06188 147.866 2.05589 147.122C2.01994 143.635 2.07685 140.143 1.93007 136.657C1.4448 125.158 1.18718 113.657 0.809748 102.16C0.345442 88.0219 0.923578 73.8862 0.396365 59.7593C0.0878265 51.5127 -0.0110256 43.2683 0.000956448 35.0217C0.00994302 28.4377 1.18119 21.8954 1.41484 15.3223C1.5766 10.7944 2.07685 6.23348 0.800761 1.75394C0.363414 0.218974 1.22912 -0.086699 2.8467 0.0188572C8.81379 0.408096 14.7839 0.773144 20.724 1.32072C22.6831 1.50104 24.6152 1.48565 26.5473 1.48565C130.917 1.49884 235.29 1.67477 339.66 1.3735C376.353 1.26794 413.051 1.42188 449.74 1.02604C457.04 0.946873 464.346 0.696178 471.64 0.85891C497.042 1.42847 522.447 0.962267 547.849 1.14699C548.934 1.15579 550.273 0.801734 550.357 2.27072C550.797 10.0841 551.564 17.8908 551.764 25.7064C552.016 35.3604 552.139 45.0254 551.755 54.675C551.081 71.5486 551.833 88.4266 551.207 105.289C550.974 111.596 551.043 117.901 550.929 124.204C550.896 125.958 550.812 127.72 550.363 129.444C550.306 129.659 550.375 129.897 550.407 130.128C549.991 137.904 549.644 145.678 549.751 153.46C549.781 155.628 548.281 156.702 545.351 156.704C522.912 156.717 500.475 156.644 478.039 156.79C471.335 156.834 464.625 157.089 457.924 156.968C425.893 156.389 393.855 156.708 361.824 156.774C355.923 156.785 350.019 156.715 344.127 156.649C270.542 155.824 196.957 156.55 123.372 156.306C121.502 156.299 119.636 156.308 117.767 156.31C117.764 156.31 117.761 156.31 117.758 156.308C117.614 156.229 117.473 156.15 117.33 156.073C117.33 156.073 117.324 156.073 117.321 156.071C114.094 156.049 110.868 156.005 107.642 156.005C86.1402 155.998 64.6384 155.903 43.1395 156.062C36.8609 156.108 30.5912 156.084 24.3276 155.892C17.5787 155.688 10.9256 154.507 4.10482 154.839C4.09883 154.839 4.09284 154.837 4.08985 154.832C2.88265 152.523 4.57213 152.495 5.84822 152.57C10.7249 152.849 15.5747 153.344 20.4784 153.462C23.6866 153.542 26.8858 154.03 30.091 154.034C59.4921 154.078 88.8961 154.056 118.297 154.054C118.303 154.054 118.306 154.054 118.309 154.058C118.878 154.621 119.612 154.406 120.328 154.289H120.331C132.205 154.285 144.077 154.272 155.951 154.278C158.827 154.278 161.705 154.362 164.581 154.364C182.653 154.373 200.725 154.371 218.8 154.362C219.809 154.362 220.819 154.265 221.831 154.214C227.957 154.467 234.083 154.474 240.209 154.214C243.1 154.467 245.99 154.467 248.878 154.214C248.878 154.214 248.884 154.214 248.887 154.214C249.384 154.393 249.885 154.39 250.382 154.214C250.382 154.214 250.388 154.214 250.391 154.214C251.748 154.456 253.114 154.419 254.477 154.252L254.486 154.243Z" fill="#B0D694"/>
</svg>
