<svg width="474" height="174" viewBox="0 0 544 174" fill="none" xmlns="http://www.w3.org/2000/svg">
<path d="M250.797 170.945C259.509 171.161 268.224 171.159 276.935 170.945C283.976 171.13 291.017 171.215 298.058 170.901C298.386 170.901 298.713 170.901 299.038 170.901C300.455 170.959 301.869 171.062 303.286 171.069C315.177 171.11 327.077 170.932 338.959 171.205C366.252 171.832 393.544 171.581 420.83 171.388C440.668 171.249 460.512 170.954 480.345 171.261C496.168 171.505 511.985 171.334 527.806 171.498C530.885 171.529 533.958 170.869 537.049 171.503C538.519 171.805 538.867 171.115 538.888 169.996C539 163.726 538.85 157.435 539.425 151.193C540.432 140.248 539.898 129.285 540.42 118.345C541.149 103.095 540.55 87.8456 540.78 72.5984C540.901 64.775 540.919 56.9491 540.981 49.1257C540.981 48.9746 541.017 48.8235 541.081 48.6821C541.164 48.5067 541.194 48.3166 541.173 48.1289C540.562 42.4405 540.771 36.7325 540.825 31.0392C540.898 23.033 539.723 15.0731 539.78 7.0693C539.803 3.77907 539.555 3.84488 535.478 3.7352C519.156 3.2965 502.822 3.12834 486.509 3.48661C467.834 3.89606 449.162 3.9253 430.501 3.64502C406.135 3.28188 381.774 3.53779 357.41 3.43299C351.698 3.40861 345.982 3.69377 340.267 3.83512C337.412 3.69864 334.561 3.64503 331.715 3.93749C320.822 3.77663 309.928 3.67671 299.038 3.99354C298.71 3.99354 298.386 3.99354 298.058 3.99354C297.397 3.93505 296.738 3.82781 296.077 3.82538C280.307 3.81563 264.537 3.81563 248.766 3.82538C248.474 3.82538 248.179 3.83269 247.887 3.86924C247.344 3.93992 246.794 3.91799 246.251 3.85462C246.068 3.83269 245.879 3.83269 245.696 3.86924C245.212 3.96186 244.707 3.96186 244.211 3.91555C243.621 3.86193 243.03 3.82538 242.44 3.82538C214.185 3.81563 185.931 3.81807 157.676 3.81807C134.171 3.81807 110.664 3.81807 87.1591 3.82538C86.979 3.82538 86.7989 3.82781 86.6188 3.83269C84.8476 3.83269 83.0792 3.83025 81.305 3.82781C79.8231 3.76932 78.3381 3.76201 76.8562 3.81319L71.7018 3.82294C69.0774 3.70108 66.4441 3.84 63.8197 3.82781C55.2763 3.78882 46.724 3.60603 38.1924 3.88874C32.4092 4.07885 26.6615 3.8205 20.9048 3.68645C16.6095 3.58653 12.3349 2.9358 8.04544 2.58971C6.73175 2.48491 5.39445 2.57265 3.80621 2.57265C3.79736 2.57265 3.7885 2.57996 3.79145 2.58728C4.65937 6.06273 4.76565 9.56012 4.35235 12.9917C3.75603 17.9417 4.51472 22.9404 3.46377 27.8416C2.92058 30.3812 2.92353 32.911 2.92353 35.4481C2.93239 58.855 2.72574 82.2644 3.14789 105.666C3.31616 115.045 3.31026 124.428 3.60252 133.806C3.60842 134.282 3.3693 134.818 3.49919 135.261C3.84459 136.451 3.86525 137.686 3.85049 138.91C3.83573 140.133 4.02172 141.325 4.13685 142.512C4.25789 143.733 4.49996 144.962 4.47339 146.195C4.37007 151.366 5.27636 156.516 4.95163 161.693C4.92211 162.175 4.95163 162.66 4.93392 163.143C4.89849 163.999 4.30217 164.744 3.38701 164.747C2.33016 164.747 2.03199 163.877 2.02609 163.053C1.99067 159.187 2.04675 155.317 1.9021 151.454C1.42386 138.71 1.16998 125.963 0.798013 113.222C0.340436 97.553 0.910193 81.8866 0.390621 66.23C0.0865537 57.0905 -0.0108659 47.9534 0.000942587 38.8139C0.00979892 31.5169 1.16407 24.2662 1.39434 16.9814C1.55375 11.9632 2.04675 6.90844 0.789156 1.94385C0.358147 0.242685 1.21131 -0.0960868 2.80545 0.0208991C8.68605 0.452284 14.5696 0.85686 20.4236 1.46372C22.3543 1.66358 24.2584 1.64651 26.1625 1.64651C129.02 1.66114 231.88 1.85612 334.738 1.52222C370.898 1.40523 407.064 1.57584 443.222 1.13714C450.416 1.0494 457.616 0.77156 464.805 0.951913C489.839 1.58315 514.876 1.06646 539.909 1.27119C540.978 1.28094 542.298 0.888546 542.38 2.5166C542.814 11.176 543.57 19.8281 543.768 28.4899C544.016 39.1892 544.137 49.9007 543.759 60.5952C543.095 79.2959 543.836 98.0014 543.219 116.69C542.989 123.68 543.056 130.667 542.944 137.652C542.912 139.597 542.829 141.549 542.386 143.46C542.33 143.699 542.398 143.962 542.431 144.218C542.02 152.836 541.678 161.452 541.784 170.077C541.814 172.48 540.335 173.669 537.447 173.672C515.333 173.686 493.222 173.606 471.111 173.767C464.504 173.816 457.891 174.098 451.287 173.964C419.72 173.323 388.147 173.677 356.58 173.75C350.765 173.762 344.946 173.684 339.139 173.611C266.621 172.697 194.102 173.501 121.584 173.231C119.742 173.223 117.902 173.233 116.06 173.236C116.057 173.236 116.054 173.236 116.051 173.233C115.91 173.145 115.771 173.058 115.629 172.972C115.629 172.972 115.623 172.972 115.62 172.97C112.441 172.946 109.262 172.897 106.082 172.897C84.8918 172.889 63.7016 172.785 42.5143 172.96C36.3267 173.011 30.1479 172.984 23.975 172.772C17.3239 172.546 10.7673 171.237 4.04533 171.605C4.03943 171.605 4.03352 171.603 4.03057 171.598C2.84087 169.039 4.50586 169.007 5.76346 169.09C10.5695 169.399 15.349 169.948 20.1816 170.079C23.3433 170.167 26.4961 170.708 29.6549 170.713C58.6299 170.762 87.6078 170.737 116.583 170.735C116.589 170.735 116.592 170.735 116.595 170.74C117.155 171.364 117.879 171.125 118.584 170.996H118.587C130.289 170.991 141.989 170.976 153.691 170.984C156.525 170.984 159.362 171.076 162.196 171.079C180.006 171.088 197.816 171.086 215.629 171.076C216.624 171.076 217.619 170.969 218.617 170.913C224.654 171.193 230.691 171.2 236.728 170.913C239.577 171.193 242.425 171.193 245.271 170.913C245.271 170.913 245.277 170.913 245.28 170.913C245.77 171.11 246.263 171.108 246.753 170.913C246.753 170.913 246.759 170.913 246.762 170.913C248.099 171.181 249.445 171.14 250.789 170.954L250.797 170.945Z" fill="#B0D694"/>
</svg>
