<svg width="573" height="270" viewBox="0 0 583 270" fill="none" xmlns="http://www.w3.org/2000/svg">
<path d="M268.777 265.259C278.114 265.595 287.453 265.592 296.789 265.259C304.335 265.546 311.88 265.679 319.426 265.191C319.777 265.191 320.128 265.191 320.476 265.191C321.995 265.281 323.51 265.44 325.029 265.452C337.773 265.516 350.526 265.24 363.26 265.663C392.509 266.635 421.757 266.246 451 265.947C472.26 265.732 493.527 265.274 514.781 265.75C531.739 266.129 548.69 265.864 565.645 266.117C568.945 266.166 572.238 265.142 575.551 266.125C577.126 266.594 577.499 265.524 577.522 263.788C577.642 254.057 577.48 244.296 578.097 234.611C579.176 217.626 578.604 200.615 579.164 183.638C579.945 159.975 579.303 136.312 579.55 112.653C579.679 100.513 579.698 88.3694 579.765 76.2296C579.765 75.9951 579.803 75.7606 579.872 75.5413C579.961 75.269 579.992 74.974 579.97 74.6828C579.315 65.8559 579.54 56.9987 579.597 48.1643C579.676 35.7409 578.417 23.3893 578.477 10.9696C578.502 5.86407 578.237 5.96619 573.867 5.796C556.375 5.11527 538.87 4.85432 521.387 5.41025C501.373 6.0456 481.363 6.09098 461.364 5.65607C435.251 5.09257 409.144 5.48967 383.033 5.32705C376.911 5.28923 370.786 5.73171 364.661 5.95105C361.602 5.73927 358.546 5.65607 355.496 6.1099C343.822 5.8603 332.147 5.70524 320.476 6.19688C320.125 6.19688 319.777 6.19688 319.426 6.19688C318.717 6.10612 318.012 5.93971 317.303 5.93593C300.402 5.9208 283.502 5.9208 266.601 5.93593C266.288 5.93593 265.971 5.94727 265.658 6.004C265.076 6.11368 264.487 6.07964 263.905 5.98131C263.709 5.94727 263.507 5.94727 263.31 6.004C262.792 6.14771 262.251 6.14771 261.719 6.07586C261.086 5.99266 260.454 5.93593 259.821 5.93593C229.541 5.9208 199.26 5.92458 168.98 5.92458C143.79 5.92458 118.597 5.92458 93.4076 5.93593C93.2146 5.93593 93.0216 5.93971 92.8286 5.94728C90.9304 5.94728 89.0353 5.94349 87.1339 5.93971C85.5457 5.84894 83.9543 5.8376 82.3661 5.91702L76.8422 5.93215C74.0296 5.74306 71.2076 5.95862 68.395 5.93971C59.2391 5.8792 50.0737 5.59556 40.9305 6.03426C34.7327 6.32924 28.5728 5.92836 22.4035 5.72036C17.8003 5.5653 13.2192 4.55554 8.62223 4.01852C7.21436 3.8559 5.78118 3.99205 4.07908 3.99205C4.06959 3.99205 4.0601 4.00339 4.06327 4.01474C4.99341 9.40769 5.1073 14.8347 4.66438 20.1595C4.0253 27.8405 4.83838 35.5971 3.71209 43.2025C3.12996 47.1432 3.13312 51.0688 3.13312 55.0057C3.14261 91.3268 2.92115 127.652 3.37357 163.965C3.5539 178.518 3.54758 193.078 3.86079 207.631C3.86711 208.368 3.61085 209.2 3.75005 209.888C4.12021 211.734 4.14236 213.651 4.12654 215.55C4.11072 217.448 4.31004 219.298 4.43342 221.139C4.56314 223.034 4.82257 224.94 4.79409 226.854C4.68336 234.879 5.65463 242.87 5.30662 250.903C5.27498 251.652 5.30662 252.404 5.28764 253.153C5.24967 254.48 4.61059 255.638 3.62983 255.642C2.49721 255.642 2.17767 254.291 2.17134 253.013C2.13338 247.015 2.19349 241.009 2.03847 235.015C1.52594 215.24 1.25386 195.461 0.855223 175.689C0.364842 151.375 0.975445 127.065 0.418625 102.771C0.0927588 88.5887 -0.0116448 74.4105 0.00101016 60.2285C0.0105014 48.9055 1.24753 37.6545 1.4943 26.3505C1.66514 18.5636 2.19349 10.72 0.845731 3.01633C0.383823 0.37658 1.29815 -0.1491 3.00657 0.0324296C9.30876 0.701821 15.6141 1.32961 21.8878 2.2713C23.9569 2.58141 25.9975 2.55494 28.0382 2.55494C138.27 2.57763 248.504 2.88018 358.736 2.36206C397.488 2.18053 436.247 2.44526 474.997 1.76453C482.707 1.62838 490.423 1.19725 498.127 1.47711C524.956 2.45661 551.788 1.65485 578.616 1.97253C579.762 1.98766 581.176 1.37878 581.264 3.90507C581.729 17.3421 582.539 30.7677 582.751 44.2085C583.017 60.8109 583.147 77.4322 582.742 94.027C582.03 123.045 582.824 152.071 582.163 181.071C581.916 191.917 581.989 202.76 581.869 213.598C581.834 216.616 581.745 219.646 581.271 222.611C581.211 222.981 581.283 223.39 581.318 223.787C580.878 237.159 580.511 250.528 580.625 263.912C580.657 267.641 579.072 269.487 575.978 269.491C552.278 269.513 528.581 269.389 504.885 269.638C497.805 269.714 490.718 270.153 483.64 269.945C449.81 268.95 415.974 269.498 382.144 269.612C375.912 269.631 369.676 269.51 363.453 269.396C285.735 267.978 208.018 269.226 130.3 268.806C128.326 268.795 126.355 268.81 124.381 268.814C124.378 268.814 124.374 268.814 124.371 268.81C124.219 268.674 124.071 268.538 123.919 268.405C123.919 268.405 123.912 268.405 123.909 268.402C120.502 268.364 117.095 268.288 113.687 268.288C90.9778 268.277 68.2684 268.114 45.5622 268.386C38.931 268.466 32.3092 268.424 25.6938 268.095C18.5659 267.743 11.5392 265.713 4.33535 266.284C4.32902 266.284 4.32269 266.28 4.31953 266.272C3.04454 262.301 4.82889 262.252 6.17665 262.381C11.3272 262.861 16.4493 263.712 21.6284 263.916C25.0168 264.052 28.3957 264.892 31.7809 264.9C62.8331 264.975 93.8885 264.937 124.941 264.934C124.947 264.934 124.95 264.934 124.953 264.941C125.554 265.909 126.33 265.539 127.086 265.338H127.089C139.63 265.331 152.168 265.308 164.709 265.319C167.746 265.319 170.787 265.463 173.824 265.467C192.911 265.482 211.998 265.478 231.088 265.463C232.154 265.463 233.22 265.297 234.289 265.21C240.759 265.645 247.229 265.656 253.699 265.21C256.752 265.645 259.805 265.645 262.855 265.21C262.855 265.21 262.861 265.21 262.864 265.21C263.39 265.516 263.918 265.512 264.443 265.21C264.443 265.21 264.449 265.21 264.453 265.21C265.886 265.626 267.328 265.561 268.768 265.274L268.777 265.259Z" fill="#B0D694"/>
</svg>
