<svg xmlns="http://www.w3.org/2000/svg" width="604" height="325" viewBox="0 0 624 325" fill="none">
  <path d="M287.679 319.293C297.672 319.698 307.668 319.694 317.661 319.293C325.737 319.639 333.814 319.798 341.89 319.211C342.266 319.211 342.642 319.211 343.014 319.211C344.639 319.32 346.261 319.511 347.887 319.525C361.527 319.603 375.177 319.27 388.806 319.78C420.112 320.95 451.418 320.481 482.717 320.121C505.473 319.862 528.235 319.311 550.984 319.885C569.134 320.34 587.277 320.021 605.424 320.326C608.956 320.386 612.481 319.152 616.027 320.335C617.713 320.9 618.113 319.612 618.136 317.522C618.265 305.809 618.092 294.06 618.753 282.402C619.907 261.957 619.294 241.481 619.894 221.046C620.73 192.563 620.043 164.079 620.307 135.601C620.446 120.988 620.466 106.371 620.537 91.7578C620.537 91.4756 620.578 91.1933 620.652 90.9293C620.747 90.6015 620.781 90.2465 620.757 89.8959C620.056 79.271 620.297 68.6096 620.358 57.9755C620.442 43.0214 619.095 28.1537 619.159 13.2041C619.186 7.05861 618.902 7.18152 614.225 6.97667C595.503 6.15726 576.766 5.84316 558.054 6.51234C536.633 7.27712 515.215 7.33174 493.81 6.80823C465.86 6.12995 437.917 6.60793 409.97 6.41219C403.418 6.36667 396.862 6.89928 390.306 7.16331C387.032 6.90838 383.761 6.80824 380.496 7.35451C368.001 7.05406 355.506 6.86741 343.014 7.45921C342.638 7.45921 342.266 7.45921 341.89 7.45921C341.131 7.34995 340.376 7.14965 339.618 7.1451C321.528 7.12689 303.439 7.12689 285.35 7.1451C285.014 7.1451 284.676 7.15875 284.341 7.22704C283.718 7.35905 283.088 7.31808 282.465 7.19973C282.255 7.15876 282.038 7.15875 281.828 7.22704C281.273 7.40002 280.694 7.40002 280.125 7.31353C279.447 7.21338 278.77 7.1451 278.093 7.1451C245.683 7.12689 213.274 7.13144 180.864 7.13144C153.902 7.13144 126.938 7.13144 99.9766 7.1451C99.77 7.1451 99.5634 7.14965 99.3569 7.15876C97.3251 7.15876 95.2968 7.1542 93.2616 7.14965C91.5617 7.0404 89.8585 7.02674 88.1586 7.12234L82.2462 7.14055C79.2358 6.91294 76.2153 7.17241 73.2049 7.14965C63.4051 7.07681 53.5952 6.7354 43.8089 7.26346C37.1753 7.61853 30.5823 7.13599 23.9791 6.88562C19.0521 6.69898 14.1488 5.48353 9.2286 4.83711C7.72172 4.64136 6.18775 4.80524 4.36595 4.80524C4.35579 4.80524 4.34563 4.8189 4.34902 4.83256C5.34457 11.3241 5.46648 17.8565 4.9924 24.2661C4.30838 33.5117 5.17865 42.8484 3.97315 52.003C3.35008 56.7464 3.35346 61.4717 3.35346 66.2106C3.36362 109.93 3.12658 153.655 3.61082 197.365C3.80383 214.883 3.79706 232.409 4.1323 249.926C4.13907 250.813 3.86479 251.815 4.01378 252.643C4.40997 254.865 4.43367 257.173 4.41674 259.458C4.39981 261.743 4.61315 263.969 4.74521 266.186C4.88404 268.467 5.16172 270.761 5.13124 273.065C5.01272 282.725 6.0523 292.344 5.67981 302.013C5.64595 302.914 5.67981 303.82 5.65949 304.721C5.61886 306.319 4.93484 307.712 3.8851 307.717C2.67283 307.717 2.33082 306.091 2.32404 304.553C2.28341 297.333 2.34775 290.104 2.18182 282.889C1.63325 259.085 1.34203 235.277 0.915367 211.477C0.3905 182.211 1.04404 152.949 0.448065 123.705C0.0992822 106.635 -0.0124638 89.5682 0.0010812 72.4972C0.0112399 58.8678 1.33526 45.3248 1.59939 31.7181C1.78224 22.3451 2.34775 12.9037 0.905208 3.63076C0.410816 0.45329 1.38944 -0.179472 3.21801 0.0390357C9.96341 0.844784 16.7122 1.60046 23.4271 2.73397C25.6417 3.10725 27.8258 3.07539 30.01 3.07539C147.994 3.1027 265.98 3.46688 383.964 2.84322C425.442 2.62472 466.927 2.94337 508.402 2.12397C516.654 1.96009 524.913 1.44113 533.158 1.778C561.874 2.95703 590.593 1.99195 619.308 2.37434C620.534 2.39255 622.047 1.65964 622.142 4.70054C622.64 20.8747 623.507 37.0352 623.734 53.2139C624.018 73.1983 624.157 93.2054 623.724 113.181C622.962 148.11 623.812 183.049 623.104 217.955C622.84 231.011 622.918 244.062 622.789 257.109C622.752 260.742 622.657 264.388 622.149 267.957C622.085 268.403 622.163 268.895 622.2 269.373C621.729 285.47 621.336 301.562 621.458 317.672C621.492 322.161 619.796 324.382 616.484 324.387C591.117 324.414 565.754 324.264 540.391 324.564C532.813 324.656 525.228 325.184 517.653 324.933C481.444 323.736 445.228 324.396 409.019 324.533C402.348 324.555 395.674 324.41 389.013 324.273C305.83 322.566 222.647 324.068 139.464 323.563C137.351 323.549 135.241 323.568 133.128 323.572C133.124 323.572 133.121 323.572 133.118 323.568C132.955 323.404 132.796 323.24 132.633 323.08C132.633 323.08 132.627 323.08 132.623 323.076C128.976 323.03 125.329 322.939 121.682 322.939C97.3759 322.926 73.0695 322.73 48.7664 323.058C41.6688 323.153 34.5814 323.103 27.5008 322.707C19.8716 322.284 12.3507 319.839 4.64024 320.527C4.63346 320.527 4.62669 320.522 4.6233 320.513C3.25865 315.733 5.16849 315.674 6.61103 315.829C12.1238 316.407 17.6062 317.431 23.1494 317.677C26.7761 317.841 30.3926 318.851 34.0159 318.861C67.2519 318.952 100.491 318.906 133.727 318.901C133.734 318.901 133.737 318.901 133.741 318.911C134.384 320.076 135.214 319.63 136.023 319.389H136.027C149.45 319.379 162.869 319.352 176.292 319.366C179.543 319.366 182.797 319.539 186.048 319.543C206.477 319.562 226.907 319.557 247.339 319.539C248.48 319.539 249.621 319.338 250.766 319.234C257.691 319.757 264.616 319.771 271.541 319.234C274.808 319.757 278.076 319.757 281.34 319.234C281.34 319.234 281.347 319.234 281.351 319.234C281.913 319.603 282.478 319.598 283.04 319.234C283.04 319.234 283.047 319.234 283.05 319.234C284.584 319.735 286.129 319.657 287.669 319.311L287.679 319.293Z" fill="#B0D694"/>
</svg>