<svg width="444" height="192" viewBox="0 0 564 222" fill="none" xmlns="http://www.w3.org/2000/svg">
<path d="M255.408 218.102C264.28 218.378 273.154 218.375 282.026 218.102C289.196 218.338 296.367 218.447 303.537 218.046C303.871 218.046 304.204 218.046 304.535 218.046C305.978 218.12 307.418 218.251 308.861 218.26C320.971 218.313 333.089 218.086 345.19 218.434C372.984 219.234 400.778 218.913 428.566 218.668C448.769 218.49 468.978 218.114 489.175 218.506C505.289 218.817 521.397 218.599 537.508 218.808C540.644 218.848 543.773 218.005 546.921 218.814C548.418 219.199 548.773 218.319 548.794 216.892C548.908 208.891 548.755 200.865 549.341 192.902C550.366 178.937 549.822 164.95 550.354 150.992C551.097 131.535 550.487 112.079 550.721 92.6256C550.844 82.644 550.862 72.6593 550.926 62.6776C550.926 62.4848 550.962 62.2921 551.028 62.1117C551.112 61.8878 551.142 61.6453 551.121 61.4058C550.499 54.1482 550.712 46.8656 550.766 39.6018C550.841 29.3869 549.645 19.2312 549.702 9.01945C549.726 4.82157 549.474 4.90553 545.322 4.7656C528.699 4.20589 512.065 3.99133 495.452 4.44843C476.434 4.97083 457.418 5.00814 438.415 4.65055C413.6 4.18722 388.792 4.51373 363.98 4.38002C358.163 4.34892 352.342 4.71274 346.522 4.89309C343.615 4.71896 340.711 4.65055 337.813 5.02369C326.719 4.81846 315.625 4.69097 304.535 5.09521C304.201 5.09521 303.871 5.09521 303.537 5.09521C302.863 5.02058 302.193 4.88376 301.52 4.88065C285.459 4.86822 269.399 4.86822 253.339 4.88065C253.042 4.88065 252.741 4.88998 252.443 4.93662C251.89 5.0268 251.331 4.99881 250.778 4.91797C250.592 4.88998 250.399 4.88998 250.213 4.93662C249.72 5.05479 249.206 5.05479 248.701 4.9957C248.099 4.92729 247.498 4.88065 246.897 4.88065C218.123 4.86822 189.349 4.87133 160.575 4.87133C136.638 4.87133 112.698 4.87132 88.7612 4.88065C88.5779 4.88065 88.3945 4.88376 88.2111 4.88998C86.4073 4.88998 84.6064 4.88687 82.7996 4.88376C81.2904 4.80913 79.7782 4.7998 78.269 4.8651L73.0199 4.87755C70.3472 4.72207 67.6655 4.89931 64.9928 4.88376C56.2924 4.83401 47.5829 4.60079 38.8945 4.9615C33.005 5.20404 27.1516 4.87443 21.2891 4.70341C16.9148 4.57592 12.5616 3.74567 8.19334 3.30412C6.8555 3.17041 5.49361 3.28235 3.87618 3.28235C3.86716 3.28235 3.85814 3.29168 3.86115 3.30101C4.74502 7.73521 4.85325 12.1974 4.43236 16.5756C3.82507 22.8911 4.59771 29.2688 3.52744 35.522C2.97427 38.7622 2.97727 41.9899 2.97727 45.2269C2.98629 75.0909 2.77585 104.958 3.20576 134.816C3.37712 146.781 3.37111 158.753 3.66874 170.719C3.67475 171.325 3.43124 172.009 3.56352 172.575C3.91526 174.092 3.93631 175.669 3.92127 177.23C3.90624 178.791 4.09565 180.311 4.21289 181.826C4.33616 183.384 4.58268 184.951 4.55562 186.524C4.4504 193.123 5.37336 199.693 5.04265 206.298C5.01259 206.914 5.04265 207.532 5.02462 208.148C4.98854 209.239 4.38125 210.191 3.44927 210.194C2.37299 210.194 2.06935 209.084 2.06333 208.033C2.02726 203.101 2.08438 198.163 1.93707 193.235C1.45003 176.975 1.19149 160.712 0.812682 144.455C0.346694 124.464 0.926924 104.476 0.397802 84.5004C0.0881448 72.8396 -0.0110656 61.1819 0.000959914 49.5212C0.00997904 40.2112 1.18547 30.9603 1.41997 21.6659C1.58231 15.2634 2.08438 8.81422 0.803662 2.48009C0.364731 0.309632 1.23357 -0.122593 2.85702 0.0266644C8.84572 0.577053 14.8374 1.09324 20.7991 1.86751C22.7652 2.12249 24.7044 2.10073 26.6435 2.10073C131.392 2.11938 236.143 2.36815 340.891 1.94214C377.716 1.79288 414.547 2.01055 451.369 1.45083C458.696 1.33889 466.029 0.984404 473.349 1.21451C498.843 2.01988 524.34 1.36066 549.834 1.62186C550.923 1.6343 552.266 1.13366 552.351 3.21083C552.793 14.259 553.562 25.2979 553.764 36.3492C554.016 50.0001 554.139 63.6665 553.755 77.3111C553.078 101.171 553.833 125.036 553.204 148.88C552.97 157.798 553.039 166.713 552.925 175.625C552.892 178.107 552.808 180.598 552.357 183.035C552.3 183.34 552.369 183.676 552.402 184.002C551.984 194.998 551.635 205.99 551.743 216.995C551.773 220.061 550.267 221.578 547.327 221.581C524.806 221.6 502.288 221.497 479.771 221.703C473.042 221.765 466.308 222.125 459.583 221.954C427.436 221.137 395.282 221.587 363.135 221.681C357.213 221.696 351.287 221.597 345.374 221.504C271.522 220.337 197.67 221.364 123.819 221.018C121.943 221.009 120.07 221.022 118.194 221.025C118.191 221.025 118.188 221.025 118.185 221.022C118.04 220.91 117.899 220.798 117.755 220.689C117.755 220.689 117.749 220.689 117.746 220.686C114.508 220.655 111.27 220.592 108.032 220.592C86.4523 220.583 64.8726 220.449 43.2958 220.673C36.9944 220.739 30.7021 220.704 24.4157 220.434C17.6424 220.145 10.9652 218.475 4.1197 218.944C4.11368 218.944 4.10767 218.941 4.10466 218.935C2.89309 215.67 4.58869 215.63 5.86941 215.735C10.7638 216.13 15.6311 216.83 20.5526 216.998C23.7724 217.11 26.9832 217.8 30.2 217.806C59.7076 217.868 89.2182 217.837 118.726 217.834C118.732 217.834 118.735 217.834 118.738 217.84C119.309 218.637 120.046 218.332 120.764 218.167H120.767C132.684 218.161 144.599 218.142 156.516 218.151C159.402 218.151 162.291 218.27 165.177 218.273C183.315 218.285 201.452 218.282 219.593 218.27C220.606 218.27 221.619 218.133 222.635 218.061C228.783 218.419 234.931 218.428 241.079 218.061C243.98 218.419 246.882 218.419 249.78 218.061C249.78 218.061 249.786 218.061 249.789 218.061C250.288 218.313 250.79 218.31 251.289 218.061C251.289 218.061 251.295 218.061 251.298 218.061C252.66 218.403 254.031 218.35 255.399 218.114L255.408 218.102Z" fill="#B0D694"/>
</svg>
