<svg width="537" height="296" viewBox="0 0 537 296" fill="none" xmlns="http://www.w3.org/2000/svg">
<path d="M247.57 290.802C256.17 291.171 264.772 291.167 273.372 290.802C280.322 291.117 287.272 291.262 294.223 290.728C294.546 290.728 294.869 290.728 295.19 290.728C296.589 290.827 297.985 291.001 299.383 291.014C311.122 291.084 322.868 290.781 334.598 291.246C361.539 292.311 388.48 291.884 415.415 291.557C434.998 291.32 454.587 290.819 474.164 291.341C489.784 291.756 505.397 291.466 521.014 291.743C524.054 291.797 527.087 290.674 530.138 291.752C531.59 292.266 531.933 291.092 531.954 289.189C532.065 278.522 531.916 267.821 532.484 257.203C533.478 238.583 532.95 219.934 533.466 201.322C534.186 175.38 533.594 149.438 533.822 123.501C533.941 110.192 533.959 96.879 534.02 83.5702C534.02 83.3131 534.055 83.0561 534.119 82.8156C534.201 82.5171 534.23 82.1937 534.209 81.8744C533.606 72.1976 533.813 62.4875 533.865 52.8023C533.938 39.1826 532.779 25.6416 532.834 12.0259C532.857 6.42876 532.612 6.54071 528.588 6.35414C512.476 5.60785 496.352 5.32177 480.249 5.93124C461.814 6.62777 443.382 6.67752 424.962 6.20073C400.909 5.58297 376.861 6.0183 352.811 5.84002C347.172 5.79856 341.53 6.28365 335.889 6.52412C333.071 6.29194 330.256 6.20073 327.446 6.69826C316.693 6.42462 305.94 6.25463 295.19 6.79362C294.867 6.79362 294.546 6.79362 294.223 6.79362C293.57 6.69411 292.92 6.51168 292.267 6.50754C276.7 6.49095 261.133 6.49095 245.565 6.50754C245.277 6.50754 244.985 6.51997 244.697 6.58216C244.161 6.7024 243.619 6.66509 243.083 6.55729C242.902 6.51997 242.715 6.51997 242.535 6.58216C242.057 6.73971 241.558 6.73971 241.069 6.66094C240.486 6.56973 239.903 6.50754 239.32 6.50754C211.429 6.49095 183.538 6.4951 155.647 6.4951C132.445 6.4951 109.24 6.4951 86.0375 6.50754C85.8598 6.50754 85.682 6.51168 85.5042 6.51998C83.7558 6.51998 82.0102 6.51583 80.2588 6.51168C78.7959 6.41218 77.3301 6.39974 75.8672 6.48681L70.7792 6.50339C68.1885 6.29609 65.5891 6.53241 62.9985 6.51168C54.565 6.44534 46.1228 6.13439 37.701 6.61533C31.9922 6.93872 26.3184 6.49924 20.6358 6.27121C16.3958 6.10122 12.1761 4.99423 7.94192 4.40549C6.64513 4.22721 5.32503 4.37647 3.75724 4.37647C3.74849 4.37647 3.73975 4.38891 3.74267 4.40134C4.59942 10.3136 4.70433 16.2632 4.29635 22.1008C3.7077 30.5215 4.45663 39.025 3.4192 47.3627C2.883 51.6829 2.88591 55.9865 2.88591 60.3025C2.89465 100.121 2.69067 139.944 3.10739 179.754C3.27349 195.708 3.26766 211.671 3.55616 227.625C3.56199 228.433 3.32595 229.345 3.45417 230.1C3.79512 232.123 3.81552 234.225 3.80095 236.307C3.78638 238.388 3.96997 240.415 4.08362 242.434C4.2031 244.512 4.44205 246.601 4.41583 248.699C4.31383 257.497 5.20847 266.258 4.88792 275.064C4.85878 275.885 4.88792 276.71 4.87043 277.531C4.83546 278.986 4.24681 280.255 3.34343 280.259C2.30017 280.259 2.00585 278.779 2.00002 277.377C1.96505 270.802 2.02042 264.218 1.87763 257.646C1.40554 235.967 1.15492 214.283 0.787744 192.607C0.336055 165.952 0.89848 139.301 0.385595 112.667C0.08544 97.1195 -0.010726 81.5759 0.000930458 66.0282C0.00967283 53.615 1.14909 41.2805 1.3764 28.8879C1.53376 20.3512 2.02042 11.7523 0.779001 3.30679C0.353539 0.412843 1.19572 -0.163458 2.76935 0.0355525C8.57428 0.769403 14.3821 1.45765 20.1608 2.49001C22.0667 2.82999 23.9463 2.80097 25.8259 2.80097C127.36 2.82584 228.897 3.15753 330.431 2.58952C366.126 2.39051 401.827 2.68073 437.519 1.93444C444.62 1.78519 451.728 1.31254 458.824 1.61935C483.536 2.69317 508.25 1.81421 532.962 2.16248C534.017 2.17906 535.32 1.51155 535.401 4.28111C535.83 19.012 536.576 33.7305 536.771 48.4656C537.016 66.6667 537.135 84.8886 536.762 103.081C536.106 134.894 536.838 166.715 536.229 198.507C536.002 210.398 536.069 222.285 535.958 234.167C535.926 237.476 535.844 240.797 535.407 244.047C535.352 244.454 535.419 244.901 535.451 245.337C535.046 259.997 534.708 274.653 534.813 289.326C534.842 293.414 533.382 295.438 530.532 295.442C508.702 295.467 486.875 295.33 465.048 295.603C458.527 295.686 451.999 296.167 445.48 295.939C414.319 294.849 383.153 295.45 351.992 295.574C346.251 295.595 340.508 295.462 334.775 295.338C263.19 293.783 191.605 295.151 120.019 294.691C118.201 294.679 116.385 294.695 114.567 294.699C114.564 294.699 114.561 294.7 114.558 294.695C114.418 294.546 114.281 294.397 114.141 294.252C114.141 294.252 114.136 294.252 114.133 294.248C110.994 294.206 107.856 294.123 104.717 294.123C83.7995 294.111 62.8819 293.932 41.9672 294.231C35.8592 294.318 29.76 294.272 23.6665 293.912C17.101 293.526 10.6287 291.3 3.99328 291.926C3.98745 291.926 3.98162 291.922 3.97871 291.913C2.80432 287.56 4.44788 287.506 5.6893 287.647C10.4335 288.174 15.1515 289.106 19.9219 289.33C23.0429 289.48 26.1552 290.4 29.2733 290.408C57.8754 290.491 86.4805 290.45 115.083 290.446C115.088 290.446 115.091 290.446 115.094 290.454C115.648 291.515 116.362 291.109 117.058 290.889H117.061C128.613 290.881 140.162 290.856 151.713 290.869C154.511 290.869 157.311 291.026 160.109 291.03C177.69 291.047 195.271 291.043 212.854 291.026C213.836 291.026 214.818 290.844 215.803 290.748C221.763 291.225 227.722 291.238 233.682 290.748C236.494 291.225 239.306 291.225 242.115 290.748C242.115 290.748 242.121 290.748 242.124 290.748C242.608 291.084 243.094 291.08 243.578 290.748C243.578 290.748 243.584 290.748 243.587 290.748C244.907 291.204 246.236 291.134 247.562 290.819L247.57 290.802Z" fill="#B0D694"/>
</svg>
