<svg width="216" height="268" viewBox="0 0 216 268" fill="none" xmlns="http://www.w3.org/2000/svg">
<path d="M100.158 263.135C103.603 263.469 107.043 263.469 110.487 263.135C113.27 263.422 116.053 263.553 118.831 263.07H119.22C119.781 263.159 120.338 263.32 120.9 263.332C125.6 263.398 130.299 263.123 134.994 263.541C145.779 264.507 156.56 264.119 167.34 263.821C175.18 263.606 183.019 263.153 190.854 263.624C197.108 264 203.357 263.738 209.605 263.988C210.824 264.036 210.929 264.042 212.21 263.994C212.651 263.249 212.929 263.398 212.935 261.669C212.977 251.956 212.919 242.338 213.145 232.631C213.544 215.728 213.334 198.8 213.538 181.903C213.827 158.351 213.591 134.805 213.68 111.26C213.727 99.1796 213.733 87.0937 213.759 75.0078C213.759 74.7752 213.775 74.5427 213.801 74.3221C213.832 74.0538 213.843 73.7557 213.838 73.4695C213.596 64.6867 213.68 55.8683 213.701 47.0796C213.733 34.7134 213.265 22.4248 213.286 10.0646C213.297 4.9846 213.197 5.68221 211.585 5.50929C205.137 4.82957 199.902 5.80146 193.285 5.72394C174.539 5.59873 185.12 6.08766 171.157 5.96841C161.527 5.40794 151.902 5.80146 142.277 5.64047C140.019 5.60469 137.761 5.44967 135.503 5.66432L134.61 5.64047C133.481 5.43178 133.245 5.37216 132.121 5.8253H131.071C126.765 5.57488 124.003 5.21713 119.703 5.70606C119.571 5.70606 118.957 5.67624 118.831 5.67624C118.568 5.58681 118.306 5.65239 118.043 5.65239C111.81 5.6345 105.583 5.03826 99.3498 5.05615C99.2342 5.05615 99.1187 5.06807 99.0032 5.12173C98.3941 4.93093 98.3678 5.06807 98.1525 4.97267C98.079 4.9369 98.0055 4.9369 97.932 4.99652C97.7429 5.13962 97.6064 4.99056 97.3439 5.06807C97.1128 4.9846 97.0813 5.05615 96.845 5.05615C85.6814 5.03826 74.5177 5.04422 63.354 5.04422C54.065 5.04422 44.7759 5.04422 35.4921 5.05615C35.4186 5.05615 35.3503 5.05615 35.2768 5.06807C34.5784 5.06807 33.8801 5.06807 33.1764 5.06211C32.5883 4.97267 32.0054 4.96075 31.4173 5.03826L29.3799 5.05615C28.3455 4.86535 27.3005 5.08 26.2661 5.06211C22.8897 5.00249 19.5133 4.72225 16.1421 5.15751C13.8579 5.44967 11.5842 5.05018 9.31054 4.84746C7.61446 4.69244 6.44873 4.88324 4.75265 4.34662C4.2328 4.18563 4.75265 4.32277 4.12778 4.32277C4.12778 4.32277 3.59743 4.33469 3.59743 4.34662C3.93875 9.71283 3.45565 13.9223 3.29287 19.223C3.05657 26.8668 3.35588 34.5882 2.94105 42.1546C2.72576 46.0779 2.72576 49.9833 2.72576 53.9006C2.72576 90.0451 2.64699 126.201 2.81502 162.34C2.88329 176.823 2.87804 191.312 2.99356 205.794C2.99356 206.528 2.89904 207.357 2.95155 208.042C3.08808 209.879 3.09858 211.787 3.08808 213.677C3.07758 215.567 3.15634 217.409 3.2036 219.24C3.25086 221.124 3.34538 223.02 3.33488 224.928C3.29287 232.918 3.64994 251.002 3.52392 258.997C3.51341 259.743 3.52391 260.494 3.51866 261.239C3.50291 262.563 3.26661 263.714 2.90954 263.714C2.48946 263.714 1.32374 262.372 1.32374 261.096C1.30798 255.128 0.809136 239.011 0.751374 233.049C0.562338 213.367 0.462571 193.685 0.315543 174.009C0.137008 149.813 0.357548 125.617 0.152759 101.439C0.0319851 87.3262 -0.0047685 73.2131 0.000482517 59.0999C0.000482517 47.8309 0.46257 36.6334 0.551837 25.3822C0.614849 17.631 1.85934 11.6149 1.36049 3.94713C1.19246 1.31768 2.05363 0.798949 2.68375 0.977823C5.25102 0.977823 6.30122 0.977823 9.1215 1.41904C9.8829 1.72909 10.639 1.69928 11.3899 1.69928C52.0328 1.72313 92.6757 2.02125 133.313 1.50848C147.297 1.32961 161.286 1.58003 175.274 0.953973C175.878 0.92416 176.482 0.936083 177.086 0.965896C179.617 1.07322 181.854 0.852611 184.248 1.03745C184.527 1.0613 184.81 1.06726 185.088 1.0613C194.672 0.775099 204.633 0.810873 214.384 1.12092C214.804 1.13881 215.329 0.530639 215.361 3.0468C215.534 16.4206 215.833 29.7825 215.907 43.1563C216.006 59.6783 216.054 76.2182 215.907 92.7342C215.644 121.616 215.938 150.499 215.691 179.363C215.602 190.155 215.628 200.947 215.581 211.733C215.571 214.738 215.534 217.749 215.361 220.701C215.34 221.07 215.361 221.476 215.376 221.869C215.213 235.177 215.077 248.486 215.119 261.806C215.129 265.514 214.547 267.351 213.407 267.357C204.669 267.381 195.932 267.255 187.194 267.506C184.584 267.583 181.969 268.019 179.36 267.81C166.888 266.82 154.412 267.369 141.941 267.476C139.641 267.494 137.346 267.375 135.051 267.261C106.397 265.848 77.7418 267.094 49.0923 266.677C48.3624 266.665 47.6377 266.677 46.9078 266.683C46.8501 266.546 46.7976 267.011 46.7398 266.874C45.4848 266.838 44.2298 266.761 42.9696 266.761C34.5784 266.749 28.8496 266.588 20.4795 266.856C18.0325 266.934 11.915 266.892 9.47857 266.564C6.85306 266.212 4.26431 264.197 1.61255 264.757L1.60204 264.745C1.1347 260.792 1.79108 260.744 2.28467 260.876C4.18554 261.353 6.07066 262.199 7.98203 262.402C9.23177 262.539 16.2524 263.374 17.5021 263.38C28.9493 263.457 35.6759 262.819 47.1231 262.819C47.1231 262.819 47.1231 262.819 47.1231 262.825C47.4627 262.825 47.7252 262.758 47.9108 262.623C52.5369 262.617 57.1578 263.189 61.7787 263.201C62.8972 263.201 64.0209 263.344 65.1394 263.35C72.1757 263.368 79.2121 263.362 86.2537 263.35C86.6476 263.35 87.0414 263.183 87.4352 263.1C89.8192 263.535 92.2084 263.541 94.5923 263.1C95.716 263.535 96.845 263.535 97.9687 263.1C98.163 263.404 98.3573 263.398 98.5516 263.1C99.082 263.511 99.6123 263.451 100.143 263.165V263.147L100.158 263.135Z" fill="#B0D694"/>
</svg>
