<svg viewBox="0 0 2560 1440" fill="none" xmlns="http://www.w3.org/2000/svg">
<g clip-path="url(#clip0_5_3)">
<path d="M1180.22 1402.8C1221.22 1404.56 1262.23 1404.54 1303.22 1402.8C1336.36 1404.3 1369.49 1405 1402.63 1402.44C1404.17 1402.44 1405.71 1402.44 1407.24 1402.44C1413.91 1402.91 1420.56 1403.75 1427.23 1403.81C1483.19 1404.15 1539.19 1402.7 1595.1 1404.92C1723.54 1410.01 1851.97 1407.97 1980.38 1406.4C2073.73 1405.28 2167.12 1402.88 2260.44 1405.37C2334.91 1407.36 2409.34 1405.97 2483.79 1407.3C2498.28 1407.55 2512.74 1402.19 2527.29 1407.34C2534.21 1409.8 2535.84 1404.19 2535.95 1395.09C2536.47 1344.08 2535.76 1292.91 2538.47 1242.15C2543.21 1153.11 2540.7 1063.94 2543.16 974.953C2546.59 850.915 2543.77 726.877 2544.85 602.86C2545.42 539.224 2545.5 475.569 2545.79 411.934C2545.79 410.705 2545.96 409.476 2546.26 408.326C2546.66 406.899 2546.79 405.353 2546.69 403.826C2543.82 357.557 2544.81 311.129 2545.06 264.82C2545.4 199.699 2539.88 134.953 2540.14 69.851C2540.25 43.0886 2539.09 43.6239 2519.9 42.7318C2443.09 39.1635 2366.22 37.7956 2289.45 40.7097C2201.57 44.0401 2113.7 44.278 2025.89 41.9983C1911.22 39.0445 1796.58 41.126 1681.93 40.2736C1655.05 40.0753 1628.15 42.3948 1601.26 43.5445C1587.82 42.4344 1574.4 41.9983 1561.01 44.3772C1509.75 43.0688 1458.48 42.256 1407.24 44.8331C1405.69 44.8331 1404.17 44.8331 1402.63 44.8331C1399.51 44.3574 1396.42 43.4851 1393.3 43.4652C1319.09 43.3859 1244.88 43.3859 1170.67 43.4652C1169.29 43.4652 1167.9 43.5247 1166.53 43.8221C1163.97 44.397 1161.38 44.2186 1158.83 43.7031C1157.97 43.5247 1157.08 43.5247 1156.22 43.8221C1153.94 44.5754 1151.57 44.5754 1149.23 44.1987C1146.45 43.7626 1143.67 43.4652 1140.89 43.4652C1007.93 43.3859 874.967 43.4058 742.005 43.4058C631.393 43.4058 520.769 43.4058 410.16 43.4652C409.313 43.4652 408.465 43.4851 407.618 43.5247C399.283 43.5247 390.961 43.5049 382.612 43.4851C375.638 43.0093 368.65 42.9498 361.676 43.3661L337.42 43.4454C325.07 42.4542 312.678 43.5842 300.328 43.4851C260.124 43.1679 219.878 41.6811 179.729 43.9807C152.514 45.5269 125.465 43.4256 98.3756 42.3353C78.1625 41.5225 58.0466 36.2294 37.8609 33.4145C31.6788 32.562 25.3856 33.2757 17.9116 33.2757C17.8699 33.2757 17.8282 33.3352 17.8421 33.3947C21.9265 61.6637 22.4266 90.1113 20.4817 118.023C17.6754 158.286 21.2457 198.945 16.3001 238.811C13.7439 259.468 13.7578 280.045 13.7578 300.682C13.7995 491.072 12.827 681.483 14.8136 871.83C15.6055 948.115 15.5777 1024.44 16.953 1100.72C16.9808 1104.58 15.8555 1108.95 16.4668 1112.55C18.0922 1122.23 18.1894 1132.28 18.12 1142.23C18.0505 1152.18 18.9257 1161.88 19.4675 1171.53C20.0371 1181.46 21.1763 1191.45 21.0512 1201.49C20.565 1243.55 24.8299 1285.44 23.3018 1327.55C23.1629 1331.47 23.3018 1335.41 23.2185 1339.34C23.0517 1346.3 20.2455 1352.37 15.9389 1352.39C10.9654 1352.39 9.56232 1345.31 9.53453 1338.61C9.36784 1307.17 9.63179 1275.68 8.95109 1244.26C6.70053 1140.61 5.5058 1036.93 3.75535 933.286C1.60205 805.835 4.28326 678.406 1.83822 551.06C0.407311 476.719 -0.0511333 402.399 0.00443568 328.059C0.0461125 268.705 5.478 209.729 6.56159 150.475C7.31176 109.658 9.63179 68.5426 3.71367 28.1611C1.6854 14.324 5.70028 11.5684 13.2021 12.52C40.8755 16.0288 68.5628 19.3196 96.1111 24.2558C105.197 25.8813 114.157 25.7426 123.118 25.7426C607.155 25.8615 1091.2 27.4475 1575.24 24.7315C1745.4 23.78 1915.6 25.1677 2085.75 21.5994C2119.61 20.8857 2153.49 18.6258 2187.32 20.0928C2305.12 25.2272 2422.95 21.0245 2540.75 22.6897C2545.78 22.769 2551.99 19.5773 2552.38 32.8198C2554.42 103.255 2557.98 173.63 2558.91 244.084C2560.07 331.112 2560.65 418.238 2558.87 505.226C2555.74 657.334 2559.23 809.484 2556.32 961.497C2555.24 1018.35 2555.56 1075.19 2555.03 1132C2554.88 1147.82 2554.49 1163.7 2552.41 1179.24C2552.14 1181.18 2552.46 1183.33 2552.61 1185.41C2550.68 1255.5 2549.07 1325.58 2549.57 1395.74C2549.71 1415.28 2542.75 1424.96 2529.17 1424.98C2425.1 1425.1 2321.04 1424.45 2216.99 1425.75C2185.9 1426.15 2154.78 1428.45 2123.7 1427.36C1975.15 1422.15 1826.58 1425.02 1678.03 1425.62C1650.66 1425.72 1623.28 1425.08 1595.95 1424.48C1254.69 1417.05 913.424 1423.59 572.158 1421.39C563.49 1421.33 554.835 1421.41 546.167 1421.43C546.154 1421.43 546.136 1421.43 546.123 1421.41C545.456 1420.7 544.806 1419.99 544.138 1419.29C544.138 1419.29 544.108 1419.29 544.094 1419.27C529.134 1419.07 514.174 1418.68 499.209 1418.68C399.491 1418.62 299.772 1417.76 200.067 1419.19C170.949 1419.61 141.872 1419.39 112.824 1417.66C81.5244 1415.82 50.6696 1405.18 19.0369 1408.17C19.0091 1408.17 18.9813 1408.15 18.9674 1408.11C13.3688 1387.29 21.204 1387.04 27.1222 1387.71C49.7386 1390.23 72.2302 1394.69 94.972 1395.76C109.851 1396.47 124.688 1400.87 139.552 1400.92C275.905 1401.31 412.272 1401.11 548.626 1401.09C548.652 1401.09 548.666 1401.1 548.679 1401.13C551.318 1406.21 554.725 1404.27 558.045 1403.21H558.058C613.127 1403.18 668.182 1403.06 723.25 1403.11C736.586 1403.11 749.939 1403.87 763.275 1403.89C847.088 1403.97 930.9 1403.95 1014.73 1403.87C1019.41 1403.87 1024.09 1403 1028.78 1402.54C1057.19 1404.82 1085.6 1404.88 1114.01 1402.54C1127.42 1404.82 1140.82 1404.82 1154.22 1402.54C1154.22 1402.54 1154.24 1402.54 1154.26 1402.54C1156.57 1404.15 1158.89 1404.12 1161.19 1402.54C1161.19 1402.54 1161.22 1402.54 1161.23 1402.54C1167.53 1404.72 1173.86 1404.38 1180.18 1402.88L1180.22 1402.8Z" fill="#B0D694"/>
</g>
<defs>
<clipPath id="clip0_5_3">
<rect width="2560" height="1440" fill="white"/>
</clipPath>
</defs>
</svg>
