<svg width="5731" height="8725" viewBox="0 0 5731 8725" fill="none" xmlns="http://www.w3.org/2000/svg">
<path d="M101.214 4022.43C94.0825 4162.17 94.1461 4301.93 101.214 4441.65C95.1224 4554.58 92.2995 4667.5 102.657 4780.43C102.657 4785.68 102.657 4790.94 102.657 4796.15C100.747 4818.88 97.3723 4841.55 97.1176 4864.28C95.7593 5055.01 101.617 5245.86 92.6394 5436.44C72.0099 5874.17 80.2661 6311.89 86.612 6749.53C91.1751 7067.7 100.895 7385.97 90.7928 7704.05C82.749 7957.84 88.3732 8211.53 83.0036 8465.27C81.9637 8514.66 103.697 8563.94 82.8339 8613.52C72.88 8637.09 95.5895 8642.67 132.434 8643.02C338.962 8644.81 546.127 8642.39 751.679 8651.62C1112.16 8667.77 1473.2 8659.21 1833.52 8667.59C2335.74 8679.28 2837.95 8669.67 3340.09 8673.37C3597.74 8675.3 3855.48 8675.58 4113.13 8676.58C4118.1 8676.58 4123.08 8677.15 4127.74 8678.19C4133.51 8679.52 4139.78 8679.98 4145.96 8679.65C4333.3 8669.85 4521.28 8673.22 4708.78 8674.07C4972.45 8675.25 5234.6 8656.41 5498.19 8657.31C5606.55 8657.68 5604.38 8653.72 5607.99 8588.32C5622.44 8326.54 5627.98 8064.56 5616.18 7802.92C5602.7 7503.39 5601.73 7203.93 5610.96 6904.63C5622.92 6513.83 5614.49 6123.12 5617.95 5732.35C5618.75 5640.73 5609.36 5549.07 5604.7 5457.4C5609.2 5411.62 5610.96 5365.89 5601.33 5320.24C5606.63 5145.53 5609.92 4970.81 5599.48 4796.15C5599.48 4790.89 5599.48 4785.68 5599.48 4780.43C5601.41 4769.82 5604.94 4759.27 5605.02 4748.66C5605.34 4495.72 5605.34 4242.8 5605.02 3989.87C5605.02 3985.18 5604.78 3980.44 5603.58 3975.76C5601.25 3967.05 5601.97 3958.23 5604.06 3949.52C5604.78 3946.59 5604.78 3943.56 5603.58 3940.62C5600.53 3932.86 5600.53 3924.77 5602.05 3916.81C5603.82 3907.33 5605.02 3897.87 5605.02 3888.4C5605.34 3435.24 5605.26 2982.06 5605.26 2528.9C5605.26 2151.92 5605.26 1774.89 5605.02 1397.91C5605.02 1395.02 5604.94 1392.13 5604.78 1389.24C5604.78 1360.84 5604.86 1332.47 5604.94 1304.02C5606.87 1280.25 5607.11 1256.43 5605.42 1232.67L5605.1 1150C5609.12 1107.9 5604.54 1065.67 5604.94 1023.58C5606.23 886.554 5612.25 749.388 5602.94 612.553C5596.68 519.799 5605.18 427.612 5609.6 335.284C5612.89 266.394 5634.32 197.834 5645.72 129.038C5649.17 107.968 5646.28 86.5194 5646.28 61.0463C5646.28 60.9042 5646.04 60.7622 5645.8 60.8097C5531.34 74.7298 5416.16 76.4343 5303.15 69.8057C5140.13 60.2414 4975.5 72.4097 4814.09 55.554C4730.45 46.842 4647.13 46.8893 4563.58 46.8893C3792.71 47.0313 3021.75 43.717 2251.05 50.4878C1942.18 53.1866 1633.17 53.092 1324.3 57.7794C1308.65 57.874 1291 54.0389 1276.39 56.1221C1237.22 61.6618 1196.53 61.9933 1156.23 61.7565C1115.94 61.5198 1076.68 64.5027 1037.61 66.3492C997.387 68.2906 956.934 72.1731 916.312 71.7469C745.991 70.0897 576.392 84.6255 405.902 79.4172C390.005 78.9437 374.045 79.4172 358.148 79.1332C329.985 78.5649 305.407 69.0007 305.323 54.3229C305.323 37.3725 333.996 32.5903 361.12 32.4956C488.42 31.9275 615.89 32.8271 743.105 30.5071C1162.8 22.8367 1582.59 18.7649 2002.23 12.799C2518.26 5.46011 3034.21 14.5982 3549.82 6.26501C3850.82 1.3882 4151.74 -0.174273 4452.73 0.0151177C4693.05 0.157161 4931.84 18.6702 5171.75 22.3632C5337.02 24.92 5503.49 32.8271 5666.99 12.657C5723.01 5.74418 5734.17 19.4277 5730.32 44.9954C5716.11 139.312 5702.79 233.676 5682.8 327.566C5676.22 358.532 5676.78 389.071 5676.78 419.611C5676.3 2069.31 5669.88 3719.03 5680.87 5368.73C5684.73 5948.68 5679.11 6528.74 5693.56 7108.66C5696.45 7224.04 5705.6 7339.52 5699.66 7454.82C5678.87 7856.33 5695.88 8257.89 5689.14 8659.39C5688.82 8676.54 5701.74 8697.7 5648.13 8699.02C5362.94 8705.98 5078 8718.1 4792.74 8721.27C4440.37 8725.25 4087.6 8727.2 3735.4 8721.14C3119.53 8710.48 2503.49 8722.37 1888 8712.47C1657.81 8708.78 1427.68 8709.87 1197.65 8708.07C1133.6 8707.55 1069.29 8706.22 1006.36 8699.12C998.512 8698.23 989.831 8699.3 981.405 8699.83C697.601 8693.24 413.861 8687.75 129.802 8689.46C50.659 8689.93 11.4797 8666.21 11.3948 8619.91C10.9279 8265.22 13.5596 7910.58 8.27488 7555.95C6.66188 7450 -2.6555 7343.93 1.75905 7238.01C22.8767 6731.72 11.2462 6225.34 8.82672 5719.05C8.42347 5625.78 10.9916 5532.46 13.4111 5439.33C43.5064 4276.22 17.0191 3113.13 25.9331 1950.03C26.1665 1920.49 25.8483 1890.99 25.7634 1861.45C25.7634 1861.4 25.7633 1861.34 25.8482 1861.3C28.7346 1859.02 31.621 1856.81 34.4438 1854.53C34.4438 1854.53 34.4436 1854.43 34.5073 1854.38C35.3138 1803.4 36.9271 1752.41 36.9271 1701.4C37.1605 1361.55 40.6202 1021.68 34.8473 681.87C33.1494 582.629 34.0405 483.53 41.0231 384.526C48.4939 277.852 91.5782 172.692 79.4594 64.8815C79.4594 64.7868 79.5442 64.692 79.714 64.6448C163.994 45.5637 165.033 72.2677 162.295 92.4378C152.108 169.519 134.047 246.175 129.718 323.684C126.831 374.394 109.003 424.961 108.833 475.623C107.241 940.341 108.048 1405.11 108.112 1869.83C108.112 1869.92 108.111 1869.96 107.963 1870.01C87.4181 1879 95.2708 1890.62 99.5368 1901.93V1901.97C99.6853 2089.66 100.174 2277.3 99.9403 2464.98C99.9403 2510.44 96.8838 2555.95 96.7989 2601.4C96.4806 2887.05 96.5654 3172.7 96.8838 3458.39C96.8838 3474.35 100.407 3490.3 102.254 3506.3C93.0215 3603.13 92.7881 3699.95 102.254 3796.78C93.0215 3842.47 93.0215 3888.16 102.254 3933.81C102.254 3933.81 102.254 3933.9 102.254 3933.94C95.7594 3941.81 95.8443 3949.72 102.254 3957.57C102.254 3957.57 102.254 3957.66 102.254 3957.72C93.4248 3979.17 94.8044 4000.75 100.896 4022.3L101.214 4022.43Z" fill="#B0D694"/>
</svg>
