<svg xmlns="http://www.w3.org/2000/svg" width="116" height="285" viewBox="0 0 506 285" fill="none">
  <path d="M233.279 279.995C241.382 280.351 249.488 280.347 257.591 279.995C264.14 280.299 270.689 280.438 277.238 279.924C277.542 279.924 277.847 279.924 278.149 279.924C279.467 280.019 280.783 280.187 282.101 280.199C293.161 280.267 304.23 279.975 315.282 280.423C340.668 281.448 366.054 281.037 391.434 280.722C409.886 280.494 428.344 280.011 446.791 280.514C461.509 280.914 476.222 280.634 490.937 280.902C493.801 280.953 496.659 279.872 499.534 280.91C500.902 281.405 501.226 280.275 501.245 278.442C501.349 268.171 501.209 257.868 501.745 247.644C502.681 229.716 502.184 211.761 502.67 193.841C503.348 168.863 502.791 143.885 503.005 118.911C503.118 106.097 503.134 93.2788 503.192 80.4645C503.192 80.217 503.225 79.9695 503.285 79.738C503.362 79.4506 503.39 79.1392 503.37 78.8318C502.802 69.5145 502.997 60.1653 503.046 50.8401C503.115 37.7265 502.022 24.6887 502.074 11.579C502.096 6.18986 501.866 6.29764 498.074 6.118C482.892 5.39945 467.699 5.124 452.525 5.71082C435.154 6.38147 417.786 6.42937 400.43 5.9703C377.765 5.37549 355.106 5.79465 332.444 5.623C327.131 5.58308 321.814 6.05013 316.498 6.28167C313.843 6.05812 311.191 5.9703 308.544 6.44934C298.411 6.18587 288.279 6.02219 278.149 6.54115C277.844 6.54115 277.542 6.54115 277.238 6.54115C276.623 6.44534 276.01 6.2697 275.395 6.2657C260.727 6.24974 246.058 6.24974 231.389 6.2657C231.118 6.2657 230.843 6.27768 230.571 6.33756C230.066 6.45332 229.555 6.4174 229.05 6.31361C228.88 6.27768 228.704 6.27768 228.534 6.33756C228.083 6.48925 227.614 6.48925 227.152 6.4134C226.603 6.32558 226.054 6.2657 225.505 6.2657C199.224 6.24974 172.943 6.25373 146.662 6.25373C124.799 6.25373 102.934 6.25373 81.0707 6.2657C80.9032 6.2657 80.7357 6.2697 80.5682 6.27768C78.9207 6.27768 77.2759 6.27369 75.6256 6.26969C74.2472 6.17389 72.866 6.16191 71.4876 6.24574L66.6932 6.26171C64.2521 6.06212 61.8028 6.28965 59.3617 6.26969C51.4151 6.20582 43.4602 5.90642 35.5245 6.36949C30.1453 6.68087 24.7991 6.25772 19.4446 6.03816C15.4493 5.87449 11.4732 4.80863 7.48344 4.24177C6.26152 4.07011 5.01763 4.21383 3.54034 4.21383C3.5321 4.21383 3.52386 4.2258 3.52661 4.23778C4.3339 9.93034 4.43275 15.6588 4.04833 21.2795C3.49366 29.3872 4.19935 37.5748 3.22181 45.6026C2.71657 49.7623 2.71931 53.9059 2.71931 58.0616C2.72755 96.4005 2.53534 134.743 2.928 173.074C3.08452 188.435 3.07903 203.805 3.35087 219.166C3.35636 219.944 3.13394 220.822 3.25476 221.549C3.57603 223.497 3.59525 225.521 3.58153 227.525C3.5678 229.529 3.74079 231.481 3.84788 233.425C3.96046 235.425 4.18562 237.437 4.16091 239.457C4.0648 247.928 4.90779 256.363 4.60575 264.842C4.57829 265.632 4.60575 266.427 4.58927 267.217C4.55632 268.618 4.00165 269.84 3.15042 269.844C2.16739 269.844 1.89005 268.419 1.88456 267.069C1.85161 260.738 1.90378 254.399 1.76923 248.072C1.3244 227.198 1.08825 206.319 0.742269 185.449C0.316655 159.785 0.846613 134.125 0.363335 108.48C0.0805077 93.5103 -0.0101068 78.5444 0.000876744 63.5745C0.00911443 51.6225 1.08276 39.7464 1.29694 27.8144C1.44522 19.5949 1.90378 11.3156 0.734031 3.1839C0.33313 0.397501 1.12669 -0.157383 2.60948 0.0342313C8.07931 0.740811 13.5519 1.40348 18.997 2.39748C20.7928 2.72482 22.5639 2.69688 24.335 2.69688C120.008 2.72083 215.683 3.04019 311.355 2.49329C344.99 2.30167 378.63 2.58111 412.262 1.86256C418.953 1.71885 425.651 1.26376 432.337 1.55917C455.622 2.59309 478.91 1.74679 502.195 2.08212C503.189 2.09808 504.417 1.45538 504.494 4.12202C504.897 18.3055 505.6 32.477 505.784 46.6645C506.015 64.1893 506.127 81.734 505.776 99.2508C505.158 129.881 505.847 160.52 505.273 191.13C505.059 202.579 505.122 214.024 505.018 225.465C504.988 228.651 504.911 231.848 504.499 234.978C504.447 235.369 504.51 235.8 504.54 236.219C504.159 250.335 503.84 264.447 503.939 278.574C503.966 282.51 502.591 284.458 499.905 284.462C479.336 284.486 458.769 284.355 438.202 284.618C432.057 284.698 425.906 285.161 419.763 284.941C390.401 283.892 361.034 284.47 331.672 284.59C326.263 284.61 320.851 284.482 315.45 284.363C247.997 282.866 180.544 284.183 113.091 283.74C111.377 283.728 109.667 283.744 107.953 283.748C107.95 283.748 107.948 283.748 107.945 283.744C107.813 283.6 107.684 283.456 107.552 283.317C107.552 283.317 107.547 283.317 107.544 283.313C104.587 283.273 101.629 283.193 98.6719 283.193C78.9619 283.181 59.2518 283.009 39.5445 283.297C33.7891 283.381 28.042 283.337 22.3003 282.989C16.1138 282.618 10.0152 280.474 3.76276 281.077C3.75726 281.077 3.75177 281.073 3.74903 281.065C2.64243 276.874 4.19112 276.822 5.36087 276.957C9.83119 277.464 14.2768 278.363 18.7718 278.578C21.7127 278.722 24.6453 279.608 27.5834 279.616C54.5344 279.696 81.4881 279.656 108.439 279.652C108.445 279.652 108.447 279.652 108.45 279.66C108.972 280.682 109.645 280.291 110.301 280.079H110.304C121.188 280.071 132.07 280.047 142.955 280.059C145.591 280.059 148.23 280.211 150.866 280.215C167.432 280.231 183.998 280.227 200.567 280.211C201.492 280.211 202.417 280.035 203.346 279.943C208.961 280.403 214.576 280.415 220.192 279.943C222.841 280.403 225.491 280.403 228.138 279.943C228.138 279.943 228.144 279.943 228.146 279.943C228.602 280.267 229.061 280.263 229.517 279.943C229.517 279.943 229.522 279.943 229.525 279.943C230.769 280.383 232.021 280.315 233.27 280.011L233.279 279.995Z" fill="#B0D694"/>
</svg>