<svg width="327" height="257" viewBox="0 0 332 257" fill="none" xmlns="http://www.w3.org/2000/svg">
<path d="M153.947 252.33C159.242 252.65 164.528 252.65 169.823 252.33C174.101 252.605 178.378 252.73 182.648 252.267H183.245C184.109 252.353 184.964 252.508 185.828 252.519C193.051 252.582 200.275 252.319 207.49 252.719C224.068 253.645 240.638 253.274 257.208 252.988C269.258 252.782 281.308 252.347 293.35 252.799C302.962 253.159 312.567 252.908 322.171 253.148C324.044 253.194 324.205 253.199 326.174 253.154C326.852 252.439 327.28 252.582 327.288 250.924C327.353 241.611 327.264 232.39 327.611 223.083C328.225 206.876 327.902 190.646 328.216 174.444C328.66 151.863 328.297 129.287 328.434 106.712C328.507 95.1292 328.515 83.5412 328.555 71.9532C328.555 71.7303 328.58 71.5073 328.62 71.2958C328.668 71.0386 328.685 70.7527 328.677 70.4783C328.305 62.0574 328.434 53.6023 328.467 45.1757C328.515 33.319 327.797 21.5366 327.829 9.68565C327.845 4.81492 327.692 5.48379 325.214 5.318C315.303 4.66628 307.256 5.59813 297.087 5.52381C268.273 5.40375 284.536 5.87254 263.075 5.7582C248.273 5.22082 233.479 5.59813 218.685 5.44377C215.214 5.40947 211.744 5.26083 208.273 5.46664L206.901 5.44377C205.166 5.24368 204.803 5.18651 203.075 5.62099H201.461C194.843 5.38089 190.598 5.03788 183.987 5.50666C183.786 5.50666 182.841 5.47807 182.648 5.47807C182.244 5.39232 181.841 5.4552 181.437 5.4552C171.857 5.43805 162.285 4.86637 152.704 4.88352C152.527 4.88352 152.349 4.89496 152.172 4.94641C151.235 4.76347 151.195 4.89496 150.864 4.80349C150.751 4.76919 150.638 4.76919 150.525 4.82635C150.235 4.96356 150.025 4.82064 149.621 4.89496C149.266 4.81492 149.218 4.88352 148.854 4.88352C131.695 4.86637 114.536 4.87209 97.3775 4.87209C83.0999 4.87209 68.8222 4.87209 54.5527 4.88352C54.4397 4.88352 54.3348 4.88352 54.2218 4.89496C53.1483 4.89496 52.0749 4.89496 50.9934 4.88924C50.0894 4.80349 49.1936 4.79205 48.2896 4.86637L45.158 4.88352C43.5681 4.70058 41.9619 4.90639 40.3719 4.88924C35.1823 4.83207 29.9926 4.56338 24.811 4.98071C21.3001 5.26084 17.8054 4.87781 14.3106 4.68343C11.7037 4.5348 9.91194 4.71774 7.305 4.20322C6.50597 4.04887 7.305 4.18036 6.34455 4.18036C6.34455 4.18036 5.52938 4.19179 5.52938 4.20322C6.054 9.34836 5.31146 13.3844 5.06126 18.4667C4.69807 25.7956 5.15812 33.1989 4.52051 40.4536C4.18959 44.2152 4.18959 47.9598 4.18959 51.7157C4.18959 86.3711 4.06853 121.038 4.3268 155.687C4.43172 169.574 4.42365 183.466 4.60122 197.352C4.60122 198.055 4.45594 198.849 4.53665 199.507C4.74649 201.268 4.76264 203.097 4.74649 204.909C4.73035 206.722 4.85142 208.488 4.92406 210.243C4.9967 212.05 5.14197 213.868 5.12583 215.697C5.06126 223.357 5.61009 240.697 5.41639 248.363C5.40025 249.077 5.41639 249.798 5.40832 250.512C5.3841 251.781 5.0209 252.885 4.47208 252.885C3.8264 252.885 2.03463 251.599 2.03463 250.375C2.01042 244.653 1.24367 229.2 1.15489 223.483C0.864334 204.612 0.710989 185.741 0.485001 166.875C0.210587 143.676 0.549565 120.478 0.234796 97.2959C0.0491623 83.7642 -0.00732936 70.2325 0.000741647 56.7008C0.000741647 45.896 0.710987 35.1598 0.848194 24.3722C0.945046 16.9403 2.85788 11.172 2.09113 3.82019C1.83286 1.29908 3.1565 0.801715 4.12502 0.97322C8.07101 0.97322 9.68521 0.97322 14.0201 1.39626C15.1904 1.69354 16.3526 1.66495 17.5068 1.66495C79.9764 1.68782 142.446 1.97366 204.908 1.48202C226.401 1.31051 247.902 1.55062 269.403 0.950352C270.331 0.921768 271.259 0.9332 272.187 0.961784C276.078 1.06469 279.516 0.853166 283.196 1.03039C283.624 1.05325 284.06 1.05897 284.488 1.05325C299.217 0.778848 314.528 0.813148 329.516 1.11042C330.162 1.12757 330.969 0.544459 331.017 2.95696C331.283 15.7798 331.743 28.5912 331.856 41.414C332.01 57.2553 332.082 73.1138 331.856 88.9494C331.453 116.642 331.905 144.334 331.526 172.009C331.388 182.356 331.429 192.704 331.356 203.046C331.34 205.927 331.283 208.814 331.017 211.644C330.985 211.998 331.017 212.387 331.041 212.764C330.791 225.524 330.581 238.284 330.646 251.055C330.662 254.611 329.766 256.372 328.015 256.378C314.585 256.401 301.154 256.281 287.724 256.521C283.713 256.595 279.694 257.012 275.682 256.812C256.514 255.863 237.337 256.389 218.168 256.492C214.633 256.509 211.106 256.395 207.579 256.286C163.536 254.931 119.492 256.126 75.4566 255.726C74.3347 255.715 73.2209 255.726 72.0991 255.732C72.0103 255.6 71.9296 256.046 71.8408 255.915C69.9118 255.88 67.9829 255.806 66.0458 255.806C53.1483 255.795 44.3429 255.64 31.4777 255.898C27.7166 255.972 18.3139 255.932 14.5689 255.617C10.5334 255.28 6.5544 253.348 2.47854 253.885L2.4624 253.874C1.74408 250.084 2.75296 250.038 3.51163 250.164C6.43334 250.621 9.33083 251.433 12.2687 251.627C14.1896 251.759 24.9805 252.559 26.9014 252.565C44.4962 252.639 54.8352 252.027 72.43 252.027C72.43 252.027 72.43 252.027 72.43 252.033C72.9519 252.033 73.3555 251.968 73.6406 251.839C80.7512 251.833 87.8537 252.382 94.9562 252.393C96.6753 252.393 98.4025 252.53 100.122 252.536C110.937 252.553 121.752 252.548 132.575 252.536C133.18 252.536 133.786 252.376 134.391 252.296C138.055 252.713 141.728 252.719 145.392 252.296C147.119 252.713 148.854 252.713 150.582 252.296C150.88 252.588 151.179 252.582 151.477 252.296C152.293 252.69 153.108 252.633 153.923 252.359V252.342L153.947 252.33Z" fill="#B0D694"/>
</svg>
