<svg width="202" height="202" viewBox="0 0 212 222" fill="none" xmlns="http://www.w3.org/2000/svg">
<path d="M98.3036 217.95C101.685 218.227 105.06 218.227 108.441 217.95C111.173 218.187 113.904 218.296 116.63 217.896H117.012C117.563 217.97 118.11 218.103 118.661 218.113C123.274 218.168 127.886 217.941 132.494 218.286C143.08 219.086 153.66 218.765 164.241 218.518C171.936 218.34 179.63 217.965 187.32 218.355C193.458 218.666 199.591 218.449 205.724 218.656C206.92 218.696 207.023 218.701 208.28 218.661C208.713 218.044 208.986 218.168 208.991 216.736C209.033 208.697 208.976 200.736 209.197 192.702C209.589 178.71 209.383 164.699 209.584 150.713C209.867 131.219 209.636 111.73 209.723 92.2405C209.77 82.2417 209.775 72.238 209.8 62.2343C209.8 62.0418 209.816 61.8493 209.842 61.6667C209.873 61.4447 209.883 61.1979 209.878 60.961C209.641 53.6914 209.723 46.3922 209.744 39.1177C209.775 28.8821 209.316 18.7106 209.337 8.47985C209.347 4.27504 209.249 4.85246 207.667 4.70934C201.338 4.14673 196.2 4.95117 189.706 4.88701C171.307 4.78337 181.692 5.18806 167.988 5.08936C158.536 4.62544 149.089 4.95117 139.642 4.81792C137.426 4.78831 135.21 4.65999 132.994 4.83766L132.118 4.81792C131.01 4.64518 130.778 4.59583 129.675 4.97091H128.644C124.418 4.76363 121.707 4.46752 117.486 4.8722C117.357 4.8722 116.754 4.84753 116.63 4.84753C116.373 4.7735 116.115 4.82779 115.857 4.82779C109.74 4.81298 103.627 4.31946 97.5099 4.33426C97.3966 4.33426 97.2832 4.34413 97.1698 4.38855C96.572 4.23062 96.5462 4.34413 96.3349 4.26517C96.2627 4.23556 96.1906 4.23556 96.1184 4.28491C95.9329 4.40336 95.7989 4.27998 95.5412 4.34414C95.3144 4.27504 95.2835 4.33426 95.0516 4.33426C84.0947 4.31946 73.1377 4.3244 62.1808 4.3244C53.0638 4.3244 43.9467 4.32439 34.8349 4.33426C34.7627 4.33426 34.6957 4.33427 34.6235 4.34414C33.9381 4.34414 33.2526 4.34414 32.562 4.3392C31.9848 4.26517 31.4128 4.2553 30.8355 4.31946L28.8359 4.33426C27.8206 4.17634 26.795 4.35401 25.7797 4.3392C22.4658 4.28985 19.1519 4.05789 15.8432 4.41817C13.6013 4.65999 11.3697 4.32933 9.13812 4.16153C7.47345 4.03322 6.32931 4.19114 4.66464 3.74697C4.15442 3.61372 4.66464 3.72723 4.05134 3.72723C4.05134 3.72723 3.53081 3.7371 3.53081 3.74697C3.86581 8.18868 3.39166 11.6729 3.23189 16.0604C2.99997 22.3873 3.29374 28.7784 2.88659 35.0412C2.67528 38.2886 2.67528 41.5212 2.67528 44.7636C2.67528 74.6809 2.59797 104.608 2.7629 134.521C2.82989 146.508 2.82474 158.501 2.93813 170.488C2.93813 171.095 2.84536 171.781 2.89689 172.349C3.03089 173.869 3.0412 175.448 3.03089 177.013C3.02059 178.577 3.09789 180.102 3.14428 181.617C3.19066 183.177 3.28343 184.746 3.27312 186.326C3.23189 192.939 3.58235 207.907 3.45866 214.525C3.44835 215.142 3.45866 215.764 3.4535 216.381C3.43804 217.477 3.20612 218.429 2.85566 218.429C2.44336 218.429 1.29922 217.319 1.29922 216.263C1.28376 211.322 0.794152 197.983 0.73746 193.047C0.551924 176.756 0.454005 160.465 0.309699 144.179C0.134471 124.152 0.350927 104.124 0.14993 84.1122C0.0313928 72.4305 -0.0046802 60.7488 0.000473582 49.0671C0.000473582 39.7396 0.454004 30.4712 0.541618 21.1584C0.603463 14.7426 1.82491 9.76301 1.3353 3.41631C1.17038 1.23988 2.0156 0.810516 2.63405 0.958573C5.15378 0.958573 6.18453 0.958573 8.95258 1.32378C9.69988 1.58041 10.442 1.55573 11.179 1.55573C51.0693 1.57548 90.9595 1.82224 130.845 1.39781C144.569 1.24975 158.299 1.45703 172.028 0.938832C172.621 0.914156 173.214 0.924024 173.806 0.9487C176.291 1.03753 178.486 0.854933 180.836 1.00792C181.109 1.02767 181.388 1.0326 181.661 1.02767C191.066 0.790775 200.843 0.820386 210.414 1.07702C210.826 1.09182 211.341 0.588432 211.372 2.6711C211.542 13.7408 211.836 24.8006 211.908 35.8703C212.006 49.5458 212.053 63.2362 211.908 76.9067C211.651 100.813 211.939 124.719 211.697 148.611C211.609 157.543 211.635 166.476 211.589 175.404C211.579 177.891 211.542 180.384 211.372 182.826C211.352 183.132 211.372 183.468 211.388 183.794C211.228 194.809 211.094 205.825 211.135 216.85C211.146 219.92 210.574 221.44 209.455 221.445C200.879 221.464 192.303 221.361 183.728 221.568C181.166 221.632 178.6 221.992 176.038 221.82C163.798 221 151.552 221.454 139.312 221.543C137.055 221.558 134.803 221.459 132.55 221.366C104.426 220.196 76.3022 221.227 48.1831 220.882C47.4668 220.872 46.7555 220.882 46.0392 220.887C45.9825 220.773 45.9309 221.158 45.8742 221.045C44.6425 221.015 43.4107 220.951 42.1738 220.951C33.9381 220.941 28.3153 220.808 20.1002 221.03C17.6985 221.094 11.6944 221.06 9.30304 220.788C6.72615 220.497 4.18534 218.829 1.58268 219.293L1.57237 219.283C1.11369 216.011 1.75791 215.971 2.24237 216.08C4.10803 216.475 5.95824 217.176 7.83422 217.343C9.06081 217.457 15.9514 218.148 17.178 218.153C28.4132 218.217 35.0152 217.689 46.2505 217.689C46.2505 217.689 46.2505 217.689 46.2505 217.694C46.5837 217.694 46.8414 217.638 47.0235 217.526C51.564 217.521 56.0993 217.995 60.6347 218.005C61.7324 218.005 62.8353 218.123 63.9331 218.128C70.8392 218.143 77.7452 218.138 84.6564 218.128C85.043 218.128 85.4295 217.99 85.816 217.921C88.1559 218.281 90.5008 218.286 92.8406 217.921C93.9435 218.281 95.0516 218.281 96.1545 217.921C96.3452 218.173 96.5359 218.168 96.7266 217.921C97.2471 218.261 97.7676 218.212 98.2882 217.975V217.96L98.3036 217.95Z" fill="#B0D694"/>
</svg>
