<svg width="1400" height="2000" viewBox="0 0 1400 2000" fill="none" xmlns="http://www.w3.org/2000/svg">
<path d="M36.277 148.728C36.277 148.728 29.9936 152.02 31.1397 159.415C31.5016 161.707 32.6276 163.886 34.578 165.301C35.9453 166.301 37.8856 167.103 40.5397 166.989C43.1938 166.876 45.9183 165.65 47.748 163.707C48.6428 162.754 49.5577 161.519 50.2413 159.962C52.3425 155.199 49.9296 149.587 44.8526 147.615C42.6308 146.748 39.8058 146.54 36.267 148.728H36.277Z" fill="#EDEDED"/>
<path d="M36.277 450.728C36.277 450.728 29.9936 454.02 31.1397 461.415C31.5016 463.707 32.6276 465.886 34.578 467.301C35.9453 468.301 37.8856 469.103 40.5397 468.989C43.1938 468.876 45.9183 467.65 47.748 465.707C48.6428 464.754 49.5577 463.519 50.2413 461.962C52.3425 457.199 49.9296 451.587 44.8526 449.615C42.6308 448.748 39.8058 448.54 36.267 450.728H36.277Z" fill="#EDEDED"/>
<path d="M36.277 738.728C36.277 738.728 29.9936 742.02 31.1397 749.415C31.5016 751.707 32.6276 753.886 34.578 755.301C35.9453 756.301 37.8856 757.103 40.5397 756.989C43.1938 756.876 45.9183 755.65 47.748 753.707C48.6428 752.754 49.5577 751.519 50.2413 749.962C52.3425 745.199 49.9296 739.587 44.8526 737.615C42.6308 736.748 39.8058 736.54 36.267 738.728H36.277Z" fill="#EDEDED"/>
<path d="M36.277 1001.73C36.277 1001.73 29.9936 1005.02 31.1397 1012.42C31.5016 1014.71 32.6276 1016.89 34.578 1018.3C35.9453 1019.3 37.8856 1020.1 40.5397 1019.99C43.1938 1019.88 45.9183 1018.65 47.748 1016.71C48.6428 1015.75 49.5577 1014.52 50.2413 1012.96C52.3425 1008.2 49.9296 1002.59 44.8526 1000.62C42.6308 999.748 39.8058 999.54 36.267 1001.73H36.277Z" fill="#EDEDED"/>
<path d="M36.276 1264.73C36.276 1264.73 29.9948 1268.02 31.1394 1275.42C31.4965 1277.71 32.6227 1279.89 34.5821 1281.3C35.9464 1282.3 37.8875 1283.11 40.5428 1282.99C43.1981 1282.87 45.9175 1281.66 47.7487 1279.7C48.6369 1278.75 49.5525 1277.51 50.2392 1275.97C52.3451 1271.2 49.9279 1265.59 44.8553 1263.62C42.6304 1262.75 39.8103 1262.54 36.276 1264.72V1264.73Z" fill="#EDEDED"/>
<path d="M36.276 1552.73C36.276 1552.73 29.9948 1556.02 31.1394 1563.42C31.4965 1565.71 32.6227 1567.89 34.5821 1569.3C35.9464 1570.3 37.8875 1571.11 40.5428 1570.99C43.1981 1570.87 45.9175 1569.66 47.7487 1567.7C48.6369 1566.75 49.5525 1565.51 50.2392 1563.97C52.3451 1559.2 49.9279 1553.59 44.8553 1551.62C42.6304 1550.75 39.8103 1550.54 36.276 1552.72V1552.73Z" fill="#EDEDED"/>
</svg>
